#!OML:ASF H:\Not Pregnant\Project 1\Capture day 1\Session 1\non-pregnant.ASF
:FULLY-SPECIFIED
:DEGREES
237
root -6.27619 16.0689 12.4788 -171.929 -3.29352 -184.651
lowerback -0.81497 -0.379589 -5.25491
upperback -6.66704 -1.28962 -1.75606
thorax -6.44314 -0.627616 1.19143
lowerneck 24.875 -5.00659 -29.4874
upperneck -9.11791 -17.5195 41.7643
head 0.158196 -12.7303 22.3866
rclavicle -8.32411e-015 2.38542e-015
rhumerus -43.1626 -14.9967 -74.8473
rradius 24.2232
rwrist 25.8139
rhand -7.63477 -1.43245
rfingers 7.12502
rthumb 18.2602 -30.5954
lclavicle -8.32411e-015 2.38542e-015
lhumerus -35.1213 -7.70742 88.0194
lradius 37.7671
lwrist 38.0657
lhand -16.4484 -11.9514
lfingers 7.12502
lthumb 9.76751 17.8021
rfemur -44.2806 -9.69337 24.9712
rtibia 19.2185
rfoot -10.7908 12.5776
rtoes -24.1518
lfemur 8.86542 0.13097 -28.4387
ltibia 6.79496
lfoot -11.0303 -24.9526
ltoes -3.39094
238
root -6.27436 16.0572 12.3108 -171.869 -3.3029 -184.669
lowerback -0.942431 -0.355952 -5.36157
upperback -6.72811 -1.26645 -1.74954
thorax -6.43658 -0.614432 1.25527
lowerneck 24.8677 -5.02265 -29.4654
upperneck -9.06269 -17.5652 41.7586
head 0.189468 -12.756 22.3646
rclavicle 6.70898e-015 -1.94809e-014
rhumerus -43.2933 -15.2656 -74.7223
rradius 24.1918
rwrist 25.9222
rhand -7.64977 -1.382
rfingers 7.12502
rthumb 18.2458 -30.5463
lclavicle 6.70898e-015 -1.94809e-014
lhumerus -35.2482 -7.62111 88.1872
lradius 37.7615
lwrist 37.8979
lhand -16.6326 -11.6461
lfingers 7.12502
lthumb 9.58979 18.1156
rfemur -44.1545 -9.81623 25.3081
rtibia 19.3763
rfoot -10.8887 13.4319
rtoes -23.3085
lfemur 9.65413 -0.162346 -28.4203
ltibia 6.33353
lfoot -10.2302 -25.0205
ltoes -4.11769
239
root -6.27325 16.0427 12.1408 -171.818 -3.29463 -184.679
lowerback -1.07958 -0.324369 -5.44197
upperback -6.78217 -1.23018 -1.74693
thorax -6.41805 -0.596437 1.2997
lowerneck 24.8461 -5.04855 -29.4425
upperneck -9.00658 -17.6192 41.749
head 0.226707 -12.7839 22.335
rclavicle 7.1811e-015 3.20043e-014
rhumerus -43.41 -15.5247 -74.6146
rradius 24.1455
rwrist 26.0386
rhand -7.65422 -1.35406
rfingers 7.12502
rthumb 18.2415 -30.5187
lclavicle 7.1811e-015 3.20043e-014
lhumerus -35.3844 -7.51335 88.335
lradius 37.7118
lwrist 37.7523
lhand -16.738 -11.4054
lfingers 7.12502
lthumb 9.48818 18.361
rfemur -43.8439 -9.44729 25.2749
rtibia 19.6761
rfoot -11.0773 13.8531
rtoes -22.6212
lfemur 10.2608 -0.435643 -28.4018
ltibia 6.24654
lfoot -9.54334 -25.0795
ltoes -4.8505
240
root -6.27299 16.0259 11.9688 -171.767 -3.28075 -184.675
lowerback -1.22499 -0.290066 -5.48827
upperback -6.84287 -1.18956 -1.74256
thorax -6.4024 -0.578297 1.32686
lowerneck 24.8194 -5.07896 -29.4267
upperneck -8.93955 -17.6796 41.7266
head 0.269606 -12.8118 22.2958
rclavicle -4.52235e-015 1.2921e-014
rhumerus -43.5261 -15.7778 -74.5086
rradius 24.0779
rwrist 26.1787
rhand -7.65969 -1.3254
rfingers 7.12502
rthumb 18.2363 -30.4906
lclavicle -4.52235e-015 1.2921e-014
lhumerus -35.5513 -7.37995 88.4653
lradius 37.6113
lwrist 37.6315
lhand -16.7548 -11.2721
lfingers 7.12502
lthumb 9.47189 18.495
rfemur -43.4127 -8.79237 25.0435
rtibia 20.1195
rfoot -11.379 14.0007
rtoes -22.1427
lfemur 10.7314 -0.700479 -28.3769
ltibia 6.43078
lfoot -8.91852 -25.1145
ltoes -5.61964
241
root -6.27366 16.0093 11.7943 -171.709 -3.26515 -184.652
lowerback -1.39687 -0.257849 -5.49731
upperback -6.91634 -1.15089 -1.7311
thorax -6.3852 -0.563636 1.34064
lowerneck 24.8162 -5.0947 -29.4309
upperneck -8.86851 -17.7279 41.6943
head 0.304844 -12.8328 22.2614
rclavicle 3.72721e-016 1.53064e-014
rhumerus -43.657 -16.0116 -74.3977
rradius 23.9926
rwrist 26.3432
rhand -7.65094 -1.31671
rfingers 7.12502
rthumb 18.2447 -30.4811
lclavicle 3.72721e-016 1.53064e-014
lhumerus -35.7748 -7.2177 88.5838
lradius 37.474
lwrist 37.5358
lhand -16.6899 -11.2559
lfingers 7.12502
lthumb 9.53456 18.5084
rfemur -42.9618 -8.06835 24.7878
rtibia 20.7098
rfoot -11.6585 14.1089
rtoes -21.5903
lfemur 11.1702 -0.960937 -28.3441
ltibia 6.66616
lfoot -8.22786 -25.1274
ltoes -6.41293
242
root -6.27551 15.9962 11.6168 -171.638 -3.25361 -184.6
lowerback -1.60197 -0.227594 -5.45322
upperback -7.00471 -1.1137 -1.71139
thorax -6.36483 -0.553262 1.33338
lowerneck 24.8443 -5.09306 -29.4542
upperneck -8.80518 -17.7602 41.6584
head 0.327224 -12.8467 22.2383
rclavicle 1.0312e-014 1.05356e-014
rhumerus -43.8071 -16.2324 -74.277
rradius 23.893
rwrist 26.5364
rhand -7.64548 -1.29449
rfingers 7.12502
rthumb 18.2499 -30.4584
lclavicle 1.0312e-014 1.05356e-014
lhumerus -36.0506 -7.01512 88.6807
lradius 37.2965
lwrist 37.455
lhand -16.5076 -11.3537
lfingers 7.12502
lthumb 9.71044 18.4025
rfemur -42.5953 -7.44861 24.6421
rtibia 21.4367
rfoot -11.7704 14.3413
rtoes -20.813
lfemur 11.7046 -1.22194 -28.2967
ltibia 6.69396
lfoot -7.36453 -25.1148
ltoes -7.35284
243
root -6.27855 15.9895 11.4357 -171.549 -3.25947 -184.53
lowerback -1.84752 -0.203659 -5.36583
upperback -7.11271 -1.08534 -1.68375
thorax -6.34175 -0.550734 1.31043
lowerneck 24.9181 -5.06736 -29.4996
upperneck -8.74843 -17.7712 41.6158
head 0.331971 -12.8512 22.229
rclavicle 8.24956e-015 -3.51849e-014
rhumerus -43.9846 -16.4549 -74.1261
rradius 23.7684
rwrist 26.7788
rhand -7.61916 -1.26527
rfingers 7.12502
rthumb 18.2753 -30.4268
lclavicle 8.24956e-015 -3.51849e-014
lhumerus -36.3832 -6.77296 88.7594
lradius 37.071
lwrist 37.39
lhand -16.2077 -11.5803
lfingers 7.12502
lthumb 9.99977 18.1621
rfemur -42.3807 -7.02076 24.6389
rtibia 22.2689
rfoot -11.6001 14.7569
rtoes -19.7211
lfemur 12.445 -1.49825 -28.246
ltibia 6.28799
lfoot -6.21385 -25.0847
ltoes -8.40606
244
root -6.28327 15.9911 11.2503 -171.45 -3.27904 -184.424
lowerback -2.14199 -0.184177 -5.21385
upperback -7.23176 -1.061 -1.64473
thorax -6.30205 -0.554777 1.26315
lowerneck 25.0339 -5.0173 -29.5662
upperneck -8.69508 -17.7599 41.5665
head 0.320074 -12.8457 22.2324
rclavicle 1.36416e-014 -1.49089e-014
rhumerus -44.1837 -16.6716 -73.9505
rradius 23.623
rwrist 27.0579
rhand -7.59325 -1.21933
rfingers 7.12502
rthumb 18.3002 -30.3785
lclavicle 1.36416e-014 -1.49089e-014
lhumerus -36.7579 -6.48056 88.8192
lradius 36.7964
lwrist 37.3139
lhand -15.8129 -11.8988
lfingers 7.12502
lthumb 10.3807 17.8249
rfemur -42.3318 -6.81771 24.7987
rtibia 23.1612
rfoot -11.0534 15.3836
rtoes -18.1943
lfemur 13.4986 -1.78271 -28.1784
ltibia 5.25389
lfoot -4.6625 -25.0528
ltoes -9.55677
245
root -6.28954 16.0007 11.0608 -171.342 -3.31594 -184.275
lowerback -2.48241 -0.166261 -4.98597
upperback -7.34622 -1.03493 -1.5976
thorax -6.23097 -0.562934 1.18151
lowerneck 25.1354 -4.97221 -29.6314
upperneck -8.62865 -17.7497 41.5035
head 0.312755 -12.837 22.2234
rclavicle -1.30701e-014 1.11319e-014
rhumerus -44.3726 -16.9069 -73.7602
rradius 23.4533
rwrist 27.3616
rhand -7.54886 -1.19973
rfingers 7.12502
rthumb 18.3429 -30.3549
lclavicle -1.30701e-014 1.11319e-014
lhumerus -37.1356 -6.15304 88.8566
lradius 36.4857
lwrist 37.1963
lhand -15.3838 -12.1848
lfingers 7.12502
lthumb 10.7946 17.5178
rfemur -42.4126 -6.77448 25.0741
rtibia 24.0639
rfoot -10.1258 16.0968
rtoes -16.3819
lfemur 15.0143 -2.07737 -28.0819
ltibia 3.29823
lfoot -2.57662 -25.0298
ltoes -10.9154
246
root -6.29775 16.0152 10.868 -171.239 -3.36593 -184.066
lowerback -2.85296 -0.147303 -4.66725
upperback -7.44871 -1.00326 -1.53686
thorax -6.12975 -0.573105 1.0629
lowerneck 25.1995 -4.94466 -29.6931
upperneck -8.53344 -17.7536 41.4166
head 0.322301 -12.8281 22.1874
rclavicle 4.42296e-015 1.68967e-014
rhumerus -44.532 -17.1583 -73.5607
rradius 23.253
rwrist 27.6716
rhand -7.49949 -1.22217
rfingers 7.12502
rthumb 18.3904 -30.3729
lclavicle 4.42296e-015 1.68967e-014
lhumerus -37.4996 -5.78789 88.8785
lradius 36.139
lwrist 37.0071
lhand -14.9899 -12.3775
lfingers 7.12502
lthumb 11.1745 17.3049
rfemur -42.5371 -6.8592 25.4454
rtibia 24.9297
rfoot -8.89789 16.8081
rtoes -14.6146
lfemur 17.2265 -2.3737 -27.9398
ltibia -3.18055e-015
lfoot 0.360231 -24.9953
ltoes -12.1994
247
root -6.30822 16.0315 10.6732 -171.154 -3.42041 -183.785
lowerback -3.23382 -0.124182 -4.24426
upperback -7.53009 -0.961713 -1.45893
thorax -6.00013 -0.582762 0.903588
lowerneck 25.2025 -4.94167 -29.75
upperneck -8.40159 -17.7786 41.309
head 0.358241 -12.8217 22.1208
rclavicle 1.45113e-014 -1.59028e-015
rhumerus -44.646 -17.414 -73.3656
rradius 23.0295
rwrist 27.9688
rhand -7.43286 -1.28353
rfingers 7.12502
rthumb 18.4545 -30.4281
lclavicle 1.45113e-014 -1.59028e-015
lhumerus -37.8381 -5.38045 88.8833
lradius 35.7575
lwrist 36.7606
lhand -14.6614 -12.4622
lfingers 7.12502
lthumb 11.4913 17.2029
rfemur -42.6077 -6.97619 25.8606
rtibia 25.7325
rfoot -7.54604 17.3952
rtoes -13.0952
lfemur 17.7104 -2.65946 -27.6927
ltibia 2.22639e-014
lfoot 1.76495 -24.9441
ltoes -13.3484
248
root -6.32062 16.0468 10.4782 -171.095 -3.47367 -183.415
lowerback -3.59731 -0.0964221 -3.71423
upperback -7.5983 -0.912786 -1.35322
thorax -5.86624 -0.592201 0.713514
lowerneck 25.1558 -4.95476 -29.8111
upperneck -8.23239 -17.8195 41.1819
head 0.417583 -12.8161 22.0303
rclavicle 1.84621e-014 -8.54774e-015
rhumerus -44.7201 -17.6595 -73.1708
rradius 22.7875
rwrist 28.2623
rhand -7.34195 -1.38927
rfingers 7.12502
rthumb 18.5419 -30.5256
lclavicle 1.84621e-014 -8.54774e-015
lhumerus -38.1666 -4.9187 88.8706
lradius 35.3318
lwrist 36.469
lhand -14.3965 -12.5023
lfingers 7.12502
lthumb 11.7468 17.1483
rfemur -42.5539 -7.02261 26.2835
rtibia 26.4635
rfoot -6.29697 17.7565
rtoes -12.081
lfemur 18.1968 -2.92677 -27.3597
ltibia -4.45278e-014
lfoot 3.45816 -24.8532
ltoes -14.1651
